<svg xmlns="http://www.w3.org/2000/svg" xmlns:xlink="http://www.w3.org/1999/xlink" width="28" height="13" version="1.1" viewBox="0 0 28 13"><title>Page 1 Copy 10</title><desc>Created with Sketch.</desc><g id="Symbols" fill="none" fill-rule="evenodd" stroke="none" stroke-width="1"><g id="Icons/32/Infinity" fill="#000" transform="translate(-2.000000, -10.000000)"><path id="Page-1-Copy-10" d="M23.5,21 C19.966,21 17.792,17.687 17.127,16.5 C17.792,15.313 19.966,12 23.5,12 C25.981,12 28,14.019 28,16.5 C28,18.981 25.981,21 23.5,21 M8.5,21 C6.019,21 4,18.981 4,16.5 C4,14.019 6.019,12 8.5,12 C12.034,12 14.208,15.313 14.873,16.5 C14.208,17.687 12.034,21 8.5,21 M23.5,10 C19.696,10 17.225,12.712 16,14.518 C14.775,12.712 12.304,10 8.5,10 C4.916,10 2,12.916 2,16.5 C2,20.084 4.916,23 8.5,23 C12.304,23 14.775,20.288 16,18.482 C17.225,20.288 19.696,23 23.5,23 C27.084,23 30,20.084 30,16.5 C30,12.916 27.084,10 23.5,10"/></g></g></svg>