<svg xmlns="http://www.w3.org/2000/svg" xmlns:xlink="http://www.w3.org/1999/xlink" width="19" height="21" version="1.1" viewBox="0 0 19 21"><title>search</title><desc>Created with Sketch.</desc><g id="Symbols" fill="none" fill-rule="evenodd" stroke="none" stroke-width="1"><g id="Components/Main-menu/320" fill="#00B956" fill-rule="nonzero" transform="translate(-183.000000, -13.000000)"><g id="search" transform="translate(183.000000, 13.000000)"><path id="Stroke-1" d="M16.875,9.749875 C16.875,5.81465975 13.6852153,2.624875 9.75,2.624875 C5.81478475,2.624875 2.625,5.81465975 2.625,9.749875 C2.625,13.6850903 5.81478475,16.874875 9.75,16.874875 C13.6852153,16.874875 16.875,13.6850903 16.875,9.749875 Z M18.875,9.749875 C18.875,14.7896597 14.7897847,18.874875 9.75,18.874875 C4.71021525,18.874875 0.625,14.7896597 0.625,9.749875 C0.625,4.71009025 4.71021525,0.624875 9.75,0.624875 C14.7897847,0.624875 18.875,4.71009025 18.875,9.749875 Z"/><polygon id="Stroke-3" points="18.633 19.74 15.303 15.683 13.757 16.952 17.087 21.009"/></g></g></g></svg>